<?xml version="1.0" encoding="utf-8"?>
<!-- Generator: Adobe Illustrator 22.0.1, SVG Export Plug-In . SVG Version: 6.00 Build 0)  -->
<svg version="1.1" id="Слой_1" xmlns="http://www.w3.org/2000/svg" xmlns:xlink="http://www.w3.org/1999/xlink" x="0px" y="0px"
	 viewBox="0 0 19.1 20.1" enable-background="new 0 0 19.1 20.1" xml:space="preserve">
<path fill="#C8D4DF" d="M3.8,20.1l-0.1,0c-0.3,0-0.2-0.3-0.2-0.3v-0.1c0,0,0,0,0-0.1c0-1.1,0.3-7.3,2.3-12.9H5.1
	c-0.5,0.7-2,3.6-2.5,9.8c0,0.1-0.1,0.2-0.1,0.3c-0.1,0.1-0.7,0.8-1.5,0.6c-0.3-0.1-0.7-0.3-1-1c0-0.1,0-0.1,0-0.2
	c0-0.3,0.2-8.3,3.2-12.5c0.1-0.1,0.2-0.2,0.4-0.2h3.1c0.4-0.9,1.9-3.4,4-3.5c1.5,0,2.9,1.1,4.2,3.5h3.7c0.2,0,0.3,0.1,0.4,0.2
	c0.1,0.1,0.1,0.3,0,0.5l-2.2,4.5c0.2,0.8,1.1,4.4,1.4,10.8c0,0.1,0,0.3-0.1,0.4s-0.2,0.2-0.4,0.2H4.2C3.9,20.1,3.9,20.1,3.8,20.1z
	 M4.4,19.2h12.8C16.9,12.4,15.9,9,15.8,8.9c0-0.1,0-0.3,0-0.4l1.9-4h-3.2c-0.2,0-0.4-0.1-0.4-0.3c-1.1-2-2.3-3.2-3.4-3.1
	C9.1,1.2,7.8,3.4,7.5,4.3C7.4,4.4,7.2,4.6,7,4.6H3.9C1.4,8.3,1,15.3,1,16.2c0.1,0.2,0.2,0.3,0.2,0.3c0.1,0,0.3-0.1,0.4-0.2
	C2.2,8.7,4.3,6,4.4,5.9c0.1-0.1,0.2-0.2,0.4-0.2h1.6c0.2,0,0.3,0.1,0.4,0.2C6.9,6,6.9,6.2,6.9,6.4C4.9,11.4,4.5,17.3,4.4,19.2z"/>
<path fill="#C8D4DF" d="M13.2,6.4c-0.2,0-0.4-0.1-0.5-0.3l-0.3-0.7c-0.1-0.3,0-0.5,0.3-0.7c0.3-0.1,0.5,0,0.7,0.3l0.3,0.7
	c0.1,0.3,0,0.5-0.3,0.7C13.3,6.4,13.3,6.4,13.2,6.4z"/>
<path fill="#C8D4DF" d="M15.7,18.3c-0.3,0-0.5-0.2-0.5-0.5c-0.5-6.7-1.8-10.4-1.8-10.5c-0.1-0.3,0-0.5,0.3-0.6s0.5,0,0.6,0.3
	c0.1,0.2,1.3,3.8,1.8,10.7C16.2,18,16,18.2,15.7,18.3L15.7,18.3z"/>
</svg>
