<svg xmlns="http://www.w3.org/2000/svg" version="1.0" viewBox="0 0 34 30"><g fill="#1B1B1B"><path d="M.8 15.9c.3-.5.6-.7 1.2-.7h3.5c.6 0 1 .4 1 1s-.4 1-1 1H1.8c-.5 0-.8-.3-1-.7v-.6zM33.2 16.4c-.1.2-.2.5-.5.6-.1.1-.3.1-.5.1h-3.8c-.6 0-1-.4-1-1s.4-1 1-1H32c.5 0 .8.2 1 .7l.1.1c.1.2.1.4.1.5zM13.6 26.3v-2c0-.2-.1-.3-.2-.4-1-.7-1.7-1.6-2.3-2.7-.4-.7-.8-1.5-1-2.2-.5-1.4-.6-2.9-.3-4.4.3-1.2.8-2.3 1.6-3.2 1.1-1.3 2.5-2.1 4.2-2.5 1.3-.3 2.6-.2 3.8.2 1.3.4 2.4 1.2 3.3 2.3.9 1.1 1.5 2.3 1.7 3.8.2 1.7-.1 3.3-.8 4.9-.6 1.3-1.3 2.4-2.3 3.3-.2.2-.4.4-.7.6-.1.1-.1.2-.1.3v3.9c0 .8-.2 1.1-1 1.3-.7.2-1.4.3-2 .5-.4.1-.8 0-1.1-.1-.6-.2-1.2-.3-1.8-.5-.7-.2-.9-.6-.9-1.1-.1-.7-.1-1.4-.1-2zM18 2.8v1.8c0 .4-.1.8-.5 1-.4.2-.7.2-1.1-.1-.3-.2-.4-.5-.4-.9V1.1c0-.9.8-1.3 1.4-1 .5.2.6.5.7 1-.1.6-.1 1.2-.1 1.7zM5.3 27c0-.4.1-.6.3-.8.8-.8 1.6-1.7 2.5-2.5.5-.5 1.2-.5 1.6 0 .3.4.3 1-.1 1.3-.7.7-1.4 1.4-2.1 2.2-.2.2-.4.4-.7.6-.7.4-1.6-.1-1.5-.8zM9 9.1c-.4 0-.6-.1-.8-.3-.9-.9-1.8-1.8-2.7-2.6-.4-.4-.4-1 0-1.4.4-.4 1-.5 1.5-.1l2.7 2.7c.3.4.3.7.1 1.1-.2.4-.5.6-.8.6zM25 9.1c-.4 0-.7-.2-.8-.6-.2-.4-.1-.7.1-1.1.5-.6 1.1-1.1 1.7-1.7l1-1c.3-.3.8-.4 1.2-.2.4.2.6.5.6 1 0 .3-.1.5-.3.7l-2.6 2.6c-.3.2-.5.3-.9.3zM28.7 26.9c-.1.4-.2.8-.6.9-.4.2-.8.1-1.1-.2-.9-.8-1.7-1.7-2.6-2.6-.4-.4-.4-1-.1-1.4.4-.4 1-.5 1.4-.1.6.5 1.1 1 1.6 1.6l1 1c.3.2.4.5.4.8z"/></g></svg>
