<?xml version="1.0" encoding="utf-8"?>
<!-- Generator: Adobe Illustrator 22.0.1, SVG Export Plug-In . SVG Version: 6.00 Build 0)  -->
<svg version="1.1" id="Слой_1" xmlns="http://www.w3.org/2000/svg" xmlns:xlink="http://www.w3.org/1999/xlink" x="0px" y="0px"
	 viewBox="0 0 27.8 25.3" enable-background="new 0 0 27.8 25.3" xml:space="preserve">
<path fill="#C8D4DF" d="M19.2,16.3C19.1,16.3,19.1,16.3,19.2,16.3C19.1,16.3,19.1,16.3,19.2,16.3C19.1,16.3,19.1,16.3,19.2,16.3z"/>
<path fill="#C8D4DF" d="M21.2,15.1C21.2,15.1,21.2,15.1,21.2,15.1C21.2,15.1,21.2,15.1,21.2,15.1C21.2,15.1,21.2,15.1,21.2,15.1
	C21.2,15.1,21.2,15.1,21.2,15.1C21.2,15.1,21.2,15.1,21.2,15.1z"/>
<path fill="#C8D4DF" d="M26,18.6c0-4,0-7.9,0-11.9c0-0.6-0.4-1.1-1-1.1c0-0.6,0-1.2,0-1.8c0.6-0.1,1-0.5,1-1.1c0-0.3,0-0.7,0-1
	c0-0.6-0.5-1.1-1.1-1.1c-1.8,0-3.7,0-5.5,0c-0.6,0-1.1,0.5-1.1,1.1c0,0.3,0,0.7,0,1c0,0.6,0.4,1,1,1.1c0,0.3,0,0.6,0,0.9
	c0,0.3,0,0.5,0,0.8c-0.2-0.3-0.5-0.4-0.9-0.4c0,0,0,0,0,0h-0.8c-0.7,0-1.1,0.3-1.2,1c-0.2,0-0.3,0-0.5,0c-0.6,0.1-1,0.5-1,1.1
	c0,0.2,0,0.3,0,0.5c0,0.7,0.5,1.1,1.2,1.2c0.1,0,0.1,0,0.2,0c0,0,0.1,0,0.1,0c0,0,0,0.1,0,0.1c0,0,0,0.1,0,0.1c-0.4,0-0.7,0-1.1,0
	l-0.4,0c-0.1,0-0.1,0-0.2,0c0-0.1,0-0.1,0-0.2c0-1.1-0.7-1.8-1.8-1.8l-5.9,0c-1.1,0-2.2,0-3.3,0c-1,0-1.7,0.7-1.7,1.7
	c0,1.9,0,3.8,0,5.7l0,2.2c0,0.3,0.1,0.5,0.2,0.7c0.3,0.6,0.8,0.9,1.6,0.9l8.7,0l0.2,0c0.2,0,0.3,0,0.5,0c0.9,0,1.6-0.7,1.6-1.6
	c0-0.1,0-0.2,0-0.4c0.6,0,1.1,0,1.7,0c0,0.1,0,0.2,0,0.2c-0.1,0-0.3,0-0.4,0c-0.6,0-1,0.4-1.1,1c0,0.2,0,0.4,0,0.7c0,0.6,0.4,1,1,1
	c0.2,0,0.3,0,0.5,0c0.1,0.6,0.5,1,1.1,1c0.1,0,0.2,0,0.4,0c0.1,0,0.3,0,0.4,0c0.5,0,0.8-0.1,1.1-0.4l0,0.6c0,0.4,0,0.7,0,1.1
	c-0.6,0.1-1,0.5-1,1.1c0,0.3,0,0.7,0,1c0,0.6,0.5,1.1,1.1,1.1c0.8,0,1.7,0,2.5,0c1,0,1.9,0,2.9,0c0.7,0,1.1-0.5,1.1-1.1
	c0-0.3,0-0.6,0-0.9c0-0.6-0.4-1.1-1-1.1c0-0.6,0-1.2,0-1.8C25.6,19.6,26,19.2,26,18.6z M24.7,23.5C24.7,23.5,24.7,23.5,24.7,23.5
	C24.7,23.5,24.7,23.5,24.7,23.5l-5.2,0c0,0,0,0,0,0c0,0,0,0,0,0l0-0.3c0-0.1,0-0.3,0-0.5c0.3,0,0.6,0,1,0l2.8,0c0.5,0,0.9,0,1.4,0
	c0,0.2,0,0.3,0,0.5L24.7,23.5z M22.5,21.7l0-0.3l-2,0c0-0.6,0-1.2,0-1.7c1.1,0,2.1,0,3.2,0c0,0.6,0,1.2,0,1.7c-0.3,0-0.7,0-1,0
	l-0.2,0L22.5,21.7z M19.5,8.8V6.9c0,0,0,0,0-0.1c1.3,0,2.6,0,3.8,0h1.4h0c0,0,0,0,0,0v11.7c0,0,0,0,0,0c0,0,0,0,0,0h-1.1
	c-1.4,0-2.8,0-4.2,0c0-2.7,0-5.4,0-8.2l0-0.7C19.5,9.3,19.5,8.9,19.5,8.8z M20.5,3.8c0.5,0,1.9,0,2.1,0h0.2c0.2,0,0.4,0,0.6,0l0.3,0
	c0,0.6,0,1.2,0,1.7c-0.2,0-0.5,0-0.7,0c-0.2,0-0.3,0-0.5,0l-0.5,0l-0.5,0c-0.4,0-0.8,0-1.2,0c0,0,0-0.1,0-0.1
	C20.6,4.9,20.6,4.4,20.5,3.8z M24.7,1.9v0.7c0,0,0,0,0,0c0,0,0,0,0,0h-0.8c0,0,0,0,0,0l-0.9,0c-0.1,0-0.8,0-2.1,0h-1.4c0,0,0,0,0,0
	h0V1.8c0,0,0,0,0,0c0,0,0,0,0,0l1.6,0L24.7,1.9C24.7,1.8,24.7,1.8,24.7,1.9C24.7,1.8,24.7,1.9,24.7,1.9z M19.4,18.5
	C19.4,18.5,19.4,18.5,19.4,18.5l0,0.3c0,0,0,0,0,0L19.4,18.5z M18.3,10.2l0,8.7c0,0,0,0.1-0.1,0.1h-0.6c0,0,0,0,0,0c0,0,0,0,0-0.1
	V6.3c0,0,0,0,0,0c0,0,0,0,0,0l0.2,0c0.2,0,0.3,0,0.5,0c0,0.5,0,1.1,0,1.6v0.6C18.2,8.7,18.2,9.8,18.3,10.2z M16,7.8l0-0.3
	c0,0,0.1,0,0.1,0L16,7.8L16,7.8z M16.3,7.4c0,0,0,0.1,0,0.1c0,0-0.1,0-0.1,0l-0.1,0c0-0.1,0-0.2,0-0.2c0,0,0,0,0,0
	c0.1,0,0.2,0,0.2,0C16.3,7.4,16.3,7.4,16.3,7.4z M16.1,18.2l0-0.3c0,0,0,0-0.1,0c0,0,0,0,0,0v-0.1c0-0.1,0-0.1,0-0.2
	c0,0,0.1,0,0.1,0l0.2,0c0,0,0,0.1,0,0.1c0,0,0,0.1,0,0.1c0,0-0.1,0-0.1,0L16.1,18.2C16.1,18.2,16.1,18.2,16.1,18.2z M14.5,12.7
	l0-0.6c0-0.6,0-1.1,0-1.7c0.6,0,1.1,0,1.7,0c0,1.6,0,3.2,0,4.7c-0.3,0-0.6,0-0.9,0c-0.3,0-0.5,0-0.8,0c0-0.6,0-1.2,0-1.7L14.5,12.7z
	 M16.3,15.1C16.3,15.1,16.3,15.1,16.3,15.1l0.3,0c0,0,0,0,0,0L16.3,15.1z M13.3,16.6c0,0.2-0.1,0.4-0.4,0.4c0,0-0.1,0-0.1,0h-2.1
	c-1.8,0-3.7,0-5.6,0c0-0.2,0-0.3,0-0.5l0-0.2c0,0,0,0,0,0h5.1c1,0,2.1,0,3.1,0c0,0.1,0,0.1,0,0.2C13.3,16.5,13.3,16.6,13.3,16.6z
	 M5.1,13c0-0.2,0-0.5,0-0.7c0,0,0,0,0,0c1.3,0,2.6,0,3.9,0l1.2,0l0.8,0c0.8,0,1.5,0,2.4,0c0,0.3,0,0.5,0,0.7c-0.8,0-1.6,0-2.4,0
	c-0.3,0-0.6,0-0.8,0H8.3C7.2,13,6.2,13,5.1,13z M13.3,11c-0.7,0-1.4,0-2.1,0c-0.3,0-0.6,0-0.9,0l-1.8,0c-1.2,0-2.3,0-3.4,0
	c0,0,0-0.1,0-0.2l0-0.1c0-0.1,0-0.3,0-0.5l4.3,0c1.3,0,2.6,0,3.9,0C13.3,10.5,13.3,10.8,13.3,11z M13,9C13,9,13,9,13,9
	c-1,0-1.9,0-2.9,0L8.2,9c-1,0-2.1,0-3.2,0c0-0.2,0-0.5,0-0.7c1.5,0,3,0,4.5,0l3.3,0c0.3,0,0.4,0.1,0.4,0.4c0,0.1,0,0.1,0,0.2
	c0,0,0,0.1,0,0.2c0,0-0.1,0-0.1,0C13.1,9,13,9,13,9z M11,15c-0.3,0-0.6,0-0.9,0H8.3c-1,0-2.1,0-3.2,0c0-0.2,0-0.5,0-0.7
	c2.7,0,5.5,0,8.2,0c0,0.2,0,0.5,0,0.7C12.5,15,11.8,15,11,15z M3.1,8.7C3.1,8.7,3.1,8.7,3.1,8.7c0.1-0.3,0.2-0.4,0.6-0.4
	c0.1,0,0.2,0,0.2,0c0,0.1,0,0.1,0,0.2V9c0,0.1,0,0.5,0,2.1l0,1.6c0,1.4,0,2.8,0,4.2c-0.1,0-0.2,0-0.3,0c-0.2,0-0.4-0.1-0.5-0.3
	c0,0,0,0,0,0c0,0,0-0.1,0-0.1C3.1,14,3.1,11.3,3.1,8.7C3.1,8.7,3.1,8.7,3.1,8.7z M24.9,21.7L24.9,21.7l0-0.3c0,0,0,0,0,0L24.9,21.7z
	"/>
</svg>
