<?xml version="1.0" encoding="utf-8"?>
<!-- Generator: Adobe Illustrator 22.0.1, SVG Export Plug-In . SVG Version: 6.00 Build 0)  -->
<svg version="1.1" id="Слой_1" xmlns="http://www.w3.org/2000/svg" xmlns:xlink="http://www.w3.org/1999/xlink" x="0px" y="0px"
	 viewBox="0 0 23.9 23.9" enable-background="new 0 0 23.9 23.9" xml:space="preserve">
<g>
	<path fill="#C8D4DF" d="M22,0.1H2C0.9,0.1,0.1,0.9,0.1,2v20c0,1.1,0.9,1.9,1.9,1.9h20c1.1,0,1.9-0.9,1.9-1.9V2
		C23.9,0.9,23.1,0.1,22,0.1z M22.9,22c0,0.5-0.4,0.9-0.9,0.9H2c-0.5,0-0.9-0.4-0.9-0.9V2c0-0.5,0.4-0.9,0.9-0.9h20
		c0.5,0,0.9,0.4,0.9,0.9V22z"/>
	<path fill="#C8D4DF" d="M20.5,1.9h-17c-0.9,0-1.6,0.7-1.6,1.6v17c0,0.9,0.7,1.6,1.6,1.6h17c0.9,0,1.6-0.7,1.6-1.6v-17
		C22.1,2.6,21.4,1.9,20.5,1.9z M21.3,20.5c0,0.4-0.4,0.8-0.8,0.8h-17c-0.4,0-0.8-0.3-0.8-0.8v-17c0-0.4,0.4-0.8,0.8-0.8h17
		c0.4,0,0.8,0.3,0.8,0.8V20.5z"/>
</g>
</svg>
