<?xml version="1.0" encoding="utf-8"?>
<!-- Generator: Adobe Illustrator 22.0.1, SVG Export Plug-In . SVG Version: 6.00 Build 0)  -->
<svg version="1.1" id="Слой_1" xmlns="http://www.w3.org/2000/svg" xmlns:xlink="http://www.w3.org/1999/xlink" x="0px" y="0px"
	 viewBox="0 0 27.8 25.3" enable-background="new 0 0 27.8 25.3" xml:space="preserve">
<g>
	<path fill="#C8D4DF" d="M26.4,9.2c-0.4-0.2-0.9-0.3-1.3-0.5l-2.4-0.9c0,0-0.1,0-0.1-0.1c-0.1-0.3-0.3-0.5-0.5-0.8
		c-0.4-0.6-0.8-1.1-1.4-1.6c-0.3-0.2-0.5-0.5-0.8-0.7c-0.6-0.5-1.3-0.9-2-1.2c-0.8-0.3-1.6-0.6-2.4-0.7c-0.7-0.1-1.3-0.2-1.9-0.1
		c-0.5,0-0.9,0.1-1.3,0.1c-1,0.2-1.9,0.5-2.8,0.9c-0.6,0.3-1.1,0.6-1.6,1c-0.5,0.4-1,0.9-1.4,1.3C6,6.7,5.6,7.2,5.3,7.8
		c0,0.1-0.1,0.1-0.2,0.1C4.8,8,4.6,8.1,4.3,8.2L1.7,9.1l-0.1,0c0,0-0.1,0-0.1,0C1.1,9.3,1,9.6,1,9.8l0,5.7c0,0,0,0.1,0,0.1
		c0,0.1,0.1,0.4,0.3,0.5L2,16.4c0.4,0.1,0.7,0.3,1.1,0.4l2.1,0.7c0,0,0.1,0,0.1,0.1c0.4,0.6,0.8,1.2,1.3,1.7
		c0.3,0.3,0.6,0.6,0.9,0.9c0.5,0.5,1.1,0.9,1.8,1.2c0.7,0.4,1.5,0.7,2.4,0.9c0.6,0.1,1.2,0.2,1.7,0.2c0.2,0,0.4,0,0.5,0
		c0.2,0,0.5,0,0.7,0c0.4,0,0.9-0.1,1.3-0.2c0.5-0.1,0.9-0.2,1.5-0.4c0.6-0.2,1.1-0.5,1.6-0.8c0.5-0.3,1-0.6,1.4-1
		c0.4-0.4,0.8-0.8,1.2-1.2c0.4-0.5,0.7-0.9,1-1.4c0,0,0,0,0,0l2.7-1c0.4-0.1,0.7-0.3,1.1-0.4c0.3-0.1,0.4-0.3,0.4-0.6V9.8
		C26.8,9.5,26.7,9.3,26.4,9.2z M25.8,15.2C25.8,15.3,25.8,15.3,25.8,15.2c-0.4,0.2-0.7,0.3-1.1,0.4l-1.6,0.6c0.2-0.6,0.4-1.3,0.5-2
		c0.1-0.7,0.2-1.4,0.1-2.1c0-0.8-0.2-1.6-0.4-2.3c-0.1-0.2-0.1-0.4-0.2-0.7l1.7,0.6c0.3,0.1,0.6,0.2,0.9,0.3c0,0,0,0,0,0.1
		c0,0.6,0,1.3,0,1.9v1.3C25.8,14,25.8,14.6,25.8,15.2z M22.8,13c-0.2,4.9-4.3,8.5-9.6,8.5c0,0,0,0,0,0c-1.9,0-4-1-5.6-2.6
		C5.9,17.2,5,15.1,5,12.7c0-2.4,0.8-4.5,2.5-6.2c1.8-1.8,3.9-2.7,6.4-2.7c0,0,0,0,0,0c2.5,0,4.6,0.9,6.4,2.7
		C22,8.3,22.9,10.5,22.8,13z M4,11.9c0,0.3,0,0.5,0,0.8c0,0.4,0,0.8,0.1,1.2c0.1,0.4,0.1,0.9,0.3,1.4c0.1,0.4,0.2,0.7,0.3,1
		c-0.1,0-0.2-0.1-0.2-0.1l-2-0.7c-0.1-0.1-0.3-0.1-0.4-0.2c0,0,0,0,0-0.1c0-1.7,0-3.4,0-5.1c0,0,0,0,0-0.1c0.7-0.3,1.4-0.5,2.2-0.8
		l0.5-0.2c-0.2,0.4-0.3,0.8-0.4,1.2C4.2,10.8,4.1,11.3,4,11.9z"/>
	<path fill="#C8D4DF" d="M12.4,7.2h1l2,0c0.2,0,0.4-0.1,0.5-0.4c0-0.2,0-0.3-0.1-0.4c-0.1-0.1-0.2-0.2-0.4-0.2c-0.1,0-0.3,0-0.4,0
		l-0.8,0c-0.6,0-1.2,0-1.7,0c-0.2,0-0.3,0.1-0.4,0.1c-0.1,0.1-0.1,0.2-0.1,0.4C11.9,7,12.1,7.2,12.4,7.2z"/>
	<path fill="#C8D4DF" d="M13.9,11.7l1.1,0c1.1,0,2.2,0,3.3,0c0,0,0,0,0,0c0.2,0,0.3-0.1,0.4-0.2c0.1-0.1,0.2-0.2,0.2-0.4
		c0-0.6,0-1.2,0-1.8v-1c0-0.4-0.2-0.6-0.6-0.6H16c-2.2,0-4.4,0-6.5,0c0,0,0,0,0,0c-0.2,0-0.3,0.1-0.4,0.2C9,7.9,8.9,8.1,8.9,8.2
		c0,1,0,1.9,0,2.9c0,0.2,0.1,0.3,0.2,0.4s0.2,0.2,0.4,0.2c0,0,0,0,0,0c1.1,0,2.2,0,3.3,0L13.9,11.7z M12.9,9.7l0-0.3
		c0-0.2,0-0.5,0-0.7c0.2,0,0.3,0,0.5,0c0,0.7,0,1.3,0,2c-0.1,0-0.2,0-0.3,0c-0.1,0-0.1,0-0.2,0c0-0.2,0-0.5,0-0.7L12.9,9.7z
		 M14.9,10.6C14.9,10.7,14.9,10.7,14.9,10.6C14.9,10.7,14.9,10.7,14.9,10.6c-0.1,0-0.2,0-0.2,0c-0.1,0-0.2,0-0.2,0h0
		c0-0.7,0-1.3,0-2c0.2,0,0.3,0,0.5,0c0,0.2,0,0.5,0,0.7l0,0.5C14.9,10.2,14.9,10.4,14.9,10.6z M17.9,8.7C17.9,8.7,17.9,8.7,17.9,8.7
		c0,0.2,0,0.5,0,0.7v1.3c0,0,0,0,0,0c0,0,0,0,0,0h-0.2c-0.1,0-0.1,0-0.2,0c0,0-0.1,0-0.1,0c0-0.7,0-1.3,0-2
		C17.6,8.7,17.7,8.7,17.9,8.7z M15.9,8.6h-0.1H15.9C15.9,8.6,15.9,8.6,15.9,8.6z M16.4,8.7C16.4,8.7,16.4,8.7,16.4,8.7
		c0,0.2,0,0.5,0,0.7v1.2c0,0,0,0,0,0c0,0,0,0,0,0h-0.2c-0.1,0-0.1,0-0.2,0c0,0-0.1,0-0.1,0c0-0.7,0-1.3,0-2
		C16.1,8.7,16.2,8.7,16.4,8.7z M11.4,9.7l0-0.3c0-0.2,0-0.5,0-0.7c0.2,0,0.3,0,0.5,0c0,0.7,0,1.3,0,2c-0.2,0-0.3,0-0.5,0
		c0-0.2,0-0.5,0-0.7L11.4,9.7z M11.4,10.8l0-0.1c0,0,0,0,0,0L11.4,10.8z M10.4,8.7c0,0.7,0,1.3,0,2c-0.1,0-0.2,0-0.3,0
		c-0.1,0-0.1,0-0.2,0c0-0.3,0-0.5,0-0.8V9.3c0-0.2,0-0.4,0-0.7C10.1,8.7,10.2,8.7,10.4,8.7z"/>
	<path fill="#C8D4DF" d="M13.9,19.5c1,0,1.9-0.4,2.5-1c0.7-0.7,1.1-1.6,1.2-2.6c0.1-2.3-1.8-3.7-3.6-3.8c-1,0-2,0.3-2.7,1.1
		c-0.7,0.7-1.1,1.7-1.1,2.6c0,1.9,1.6,3.6,3.5,3.7C13.8,19.5,13.8,19.5,13.9,19.5z M16.2,17.5l-0.1,0C16.1,17.4,16.1,17.4,16.2,17.5
		L16.2,17.5L16.2,17.5C16.2,17.5,16.2,17.5,16.2,17.5z M11.3,16.3c0.1,0,0.1,0,0.2,0c0.3,0,0.5-0.2,0.5-0.5c0-0.3-0.2-0.5-0.5-0.5
		c-0.1,0-0.1,0-0.2,0h0c0.1-0.4,0.2-0.7,0.4-1c0,0,0.1,0.1,0.1,0.1c0.2,0.2,0.4,0.2,0.6,0.1c0.1-0.1,0.2-0.2,0.3-0.3
		c0-0.2,0-0.3-0.1-0.4c0,0-0.1-0.1-0.1-0.1l0,0c0.3-0.2,0.6-0.3,0.9-0.4c0.1,0,0.1,0,0.2,0c0,0.1,0,0.1,0,0.2c0,0.3,0.2,0.5,0.5,0.5
		c0,0,0,0,0,0c0.3,0,0.5-0.2,0.5-0.5c0-0.1,0-0.1,0-0.2c0.2,0,0.4,0.1,0.5,0.1c0.2,0.1,0.3,0.2,0.5,0.3c0,0-0.1,0.1-0.1,0.1l0,0
		c-0.2,0.2-0.2,0.5,0,0.7c0.2,0.2,0.5,0.2,0.7,0c0,0,0.1-0.1,0.1-0.1c0.2,0.3,0.3,0.6,0.4,1l-0.1,0c-0.1,0-0.2,0-0.4,0.1
		c-0.2,0.1-0.3,0.3-0.3,0.5c0,0.2,0.2,0.4,0.5,0.4c0.1,0,0.1,0,0.2,0c0,0.2-0.1,0.4-0.2,0.6c-0.1,0.2-0.2,0.3-0.2,0.4
		c0,0-0.1-0.1-0.1-0.1l0,0c-0.2-0.2-0.5-0.2-0.7,0c-0.1,0.1-0.2,0.2-0.1,0.4c0,0.1,0.1,0.3,0.2,0.3c0,0,0,0,0.1,0.1c0,0,0,0,0.1,0.1
		c-0.2,0.1-0.4,0.2-0.5,0.3c-0.1,0.1-0.3,0.1-0.5,0.1c0-0.2,0-0.4,0-0.6l0-0.3c0-0.2,0-0.4,0-0.5l0,0c0.5-0.2,0.7-0.6,0.7-1.1
		c0-0.5-0.2-0.9-0.7-1.1c-0.4-0.2-0.9-0.2-1.3,0.1c-0.3,0.3-0.5,0.7-0.5,1.1c0,0.4,0.3,0.8,0.7,1c0.1,0,0.1,0,0.1,0.1
		c0,0.3,0,0.6,0,1v0.5c-0.4-0.1-0.7-0.2-1-0.4c0,0,0.1-0.1,0.1-0.1l0,0c0.2-0.2,0.2-0.5,0-0.7c-0.1-0.2-0.4-0.2-0.7-0.1
		c-0.1,0.1-0.2,0.1-0.2,0.2C11.5,17,11.3,16.7,11.3,16.3L11.3,16.3z M13.9,15.6C13.9,15.6,13.9,15.6,13.9,15.6c0.1,0,0.1,0,0.2,0.1
		c0,0,0.1,0.1,0.1,0.2c0,0.1-0.1,0.2-0.3,0.2c0,0,0,0,0,0c-0.1,0-0.2-0.1-0.2-0.2C13.7,15.7,13.8,15.6,13.9,15.6z"/>
	<path fill="#C8D4DF" d="M19.6,6.5c-0.1-0.1-0.2-0.2-0.3-0.2C19.2,6.1,19,6,18.8,5.8c-0.5-0.4-1-0.6-1.6-0.9c-0.3-0.1-0.6-0.2-1-0.3
		l0,0c-0.4-0.1-0.8-0.2-1.2-0.3c-0.5-0.1-0.9-0.1-1.3-0.1l-0.1,0c-0.4,0-0.9,0.1-1.3,0.1c-0.9,0.2-1.7,0.5-2.4,0.9
		C9,5.7,8.3,6.3,7.7,7C7.7,7,7.6,7.1,7.5,7.2C7.2,7.6,6.9,7.9,6.7,8.3L6.7,8.4c-0.2,0.3-0.4,0.7-0.5,1l0,0.1
		C6,9.9,5.8,10.3,5.7,10.7c-0.1,0.5-0.2,0.9-0.2,1.3c0,0.4,0,0.9,0,1.4c0.1,0.7,0.2,1.4,0.4,2C6.2,16,6.4,16.5,6.7,17
		c0.3,0.4,0.5,0.8,0.8,1.1c0.2,0.2,0.4,0.4,0.6,0.7c0.1,0.1,0.2,0.2,0.3,0.3c0,0,0,0,0.1,0.1c0.3,0.2,0.6,0.5,0.9,0.7l0,0
		c0.4,0.3,0.9,0.5,1.4,0.7c0.5,0.2,1.1,0.4,1.7,0.5l0-0.1l0,0l0,0.1l0.1,0c0,0,0.1,0,0.1,0l0-0.1c0,0,0,0,0,0l0,0.1l0.3,0
		c0.1,0,0.2,0,0.3,0c0.2,0,0.3,0,0.5,0c0.5,0,1,0,1.5-0.1c0.6-0.1,1.3-0.3,1.9-0.6c0,0,0.1,0,0.1,0c0.3-0.1,0.6-0.3,0.9-0.5
		c0.4-0.2,0.7-0.5,1-0.7c0,0,0.1,0,0.1-0.1l0,0c0.5-0.5,1-1,1.4-1.5c0.1-0.1,0.1-0.2,0.2-0.3c0.2-0.4,0.4-0.8,0.6-1.2
		c0.4-1,0.7-2.1,0.6-3.2c0-0.1,0-0.2,0-0.3c0-0.2,0-0.3,0-0.4c0-0.2-0.1-0.5-0.1-0.7c-0.1-0.7-0.3-1.4-0.6-2l0,0c0,0,0,0,0,0
		c-0.4-0.9-0.9-1.7-1.6-2.3C19.9,6.7,19.8,6.6,19.6,6.5z M13.2,20.1l0-0.1c-0.3,0-0.5-0.1-0.8-0.1c-0.4-0.1-0.7-0.2-1-0.3
		c-0.4-0.1-0.8-0.3-1.2-0.5c-0.4-0.2-0.7-0.5-1.1-0.7c-0.1,0-0.1-0.1-0.2-0.1c-0.2-0.2-0.4-0.4-0.6-0.6c-0.1-0.1-0.2-0.2-0.3-0.3
		c-0.3-0.4-0.5-0.7-0.7-1.1c-0.3-0.5-0.5-1-0.6-1.5c-0.2-0.6-0.3-1.2-0.3-1.8c0-0.4,0-0.7,0-1.1c0.1-0.5,0.1-0.9,0.3-1.3l0,0l0,0
		C7,10,7.2,9.5,7.4,9.1c0.3-0.5,0.7-1,1.1-1.5c0.1-0.1,0.2-0.2,0.2-0.3L9.1,7C9.2,7,9.2,6.9,9.3,6.9c0.7-0.5,1.4-0.9,2.2-1.2
		c0.3-0.1,0.5-0.2,0.8-0.2c0.4-0.1,0.9-0.2,1.3-0.2c0.2,0,0.4,0,0.5,0l0.1,0c0.2,0,0.3,0,0.5,0c0.2,0,0.4,0.1,0.6,0.1
		c0.3,0.1,0.5,0.1,0.8,0.2l0.2,0.1c1,0.3,1.9,0.9,2.6,1.6c0.2,0.2,0.3,0.3,0.5,0.5c0.2,0.2,0.4,0.5,0.6,0.8c0.4,0.5,0.7,1.1,0.9,1.8
		c0.1,0.2,0.1,0.3,0.1,0.5c0.2,0.8,0.3,1.7,0.2,2.5c0,0.6-0.2,1.2-0.3,1.7c-0.1,0.4-0.3,0.8-0.5,1.3l-0.1,0.2
		c-0.3,0.5-0.7,1-1.1,1.5l0,0c-0.1,0.1-0.3,0.3-0.4,0.4c-0.3,0.3-0.6,0.5-0.9,0.7c-0.5,0.3-0.9,0.5-1.4,0.7
		c-0.6,0.2-1.2,0.3-1.8,0.4c0,0,0,0,0,0c-0.1,0-0.1,0-0.2,0c-0.4,0-0.8,0-1.1,0L13.2,20.1L13.2,20.1z"/>
</g>
</svg>
