<?xml version="1.0" encoding="UTF-8" standalone="no"?>
<!-- Generator: Adobe Illustrator 22.0.1, SVG Export Plug-In . SVG Version: 6.00 Build 0)  -->

<svg
   xmlns:dc="http://purl.org/dc/elements/1.1/"
   xmlns:cc="http://creativecommons.org/ns#"
   xmlns:rdf="http://www.w3.org/1999/02/22-rdf-syntax-ns#"
   xmlns:svg="http://www.w3.org/2000/svg"
   xmlns="http://www.w3.org/2000/svg"
   xmlns:sodipodi="http://sodipodi.sourceforge.net/DTD/sodipodi-0.dtd"
   xmlns:inkscape="http://www.inkscape.org/namespaces/inkscape"
   version="1.1"
   id="Слой_x5F_1_x5F_1"
   x="0px"
   y="0px"
   viewBox="0 0 29.444134 29.999998"
   enable-background="new 0 0 1242 2208"
   xml:space="preserve"
   inkscape:version="0.91 r13725"
   sodipodi:docname="2et_.svg"
   width="29.444134"
   height="29.999998"><metadata
     id="metadata13"><rdf:RDF><cc:Work
         rdf:about=""><dc:format>image/svg+xml</dc:format><dc:type
           rdf:resource="http://purl.org/dc/dcmitype/StillImage" /><dc:title></dc:title></cc:Work></rdf:RDF></metadata><defs
     id="defs11" /><sodipodi:namedview
     pagecolor="#ffffff"
     bordercolor="#666666"
     borderopacity="1"
     objecttolerance="10"
     gridtolerance="10"
     guidetolerance="10"
     inkscape:pageopacity="0"
     inkscape:pageshadow="2"
     inkscape:window-width="1920"
     inkscape:window-height="1030"
     id="namedview9"
     showgrid="false"
     inkscape:zoom="0.10688406"
     inkscape:cx="-4354.5174"
     inkscape:cy="263.90002"
     inkscape:window-x="0"
     inkscape:window-y="0"
     inkscape:window-maximized="1"
     inkscape:current-layer="Слой_x5F_1_x5F_1"
     fit-margin-top="0"
     fit-margin-left="0"
     fit-margin-right="0"
     fit-margin-bottom="0" /><g
     id="g3"
     style="fill:#ffffff"
     transform="matrix(0.05586592,0,0,0.05586592,-18.713687,-46.418993)"><path
       d="M 855.2,1077.2 617.5,840.3 c -0.7,-0.9 -1.4,-1.8 -2.3,-2.6 -4.6,-4.6 -10.6,-6.8 -16.7,-6.8 -6,0 -12.1,2.2 -16.7,6.8 -0.8,0.8 -1.6,1.7 -2.3,2.6 l -237.7,236.9 c -9.1,9.1 -9.1,23.8 0,32.9 9.1,9.1 23.9,9.1 33,0 l 2.2,-2.2 0,241 c 0,10.5 8.5,19 19,19 l 0.5,0 0.5,0 405,0 c 0.7,0 1.3,0 2,-0.1 0.7,0.1 1.3,0.1 2,0.1 10.5,0 19,-8.5 19,-19 l 0,-236.4 c 9.1,6.6 22,5.8 30.2,-2.4 9.1,-9.1 9.1,-23.8 0,-32.9 z m -68.2,252.7 -372,0 0,-258 c 0,-0.6 0,-1.2 -0.1,-1.8 L 598.5,887.2 787,1075 l 0,254.9 z"
       id="path5"
       style="fill:#ffffff"
       inkscape:connector-curvature="0" /><path
       d="m 548.3,1140.6 30.1,3 c 0.6,-8.8 2.7,-15.1 6.4,-18.9 3.7,-3.8 8.7,-5.7 15,-5.7 6.4,0 11.4,1.8 15,5.4 3.6,3.6 5.4,8.8 5.4,15.5 0,6.1 -2.1,12.2 -6.2,18.5 -3.1,4.5 -11.4,13.1 -25,25.8 -16.9,15.7 -28.2,28.3 -33.9,37.8 -5.7,9.5 -9.2,19.5 -10.3,30.1 l 105.8,0 0,-28 -59.9,0 c 1.6,-2.7 3.6,-5.5 6.2,-8.4 2.5,-2.9 8.6,-8.7 18.1,-17.4 9.5,-8.7 16.1,-15.4 19.8,-20.1 5.5,-7 9.5,-13.7 12.1,-20.1 2.5,-6.4 3.8,-13.2 3.8,-20.2 0,-12.5 -4.4,-22.9 -13.3,-31.3 -8.9,-8.4 -21.1,-12.6 -36.6,-12.6 -14.2,0 -26,3.6 -35.4,10.8 -9.6,7.3 -15.3,19.2 -17.1,35.8 z"
       id="path7"
       style="fill:#ffffff"
       inkscape:connector-curvature="0" /></g></svg>